<svg width="322" height="24" viewBox="0 0 322 24" fill="none" xmlns="http://www.w3.org/2000/svg">
<path d="M0.940645 23.0371V23.1921H4.62964V23.0371C3.66864 23.0371 2.95564 22.8821 3.32764 21.7971L5.46664 15.7831H14.3636L16.6886 21.7971C17.1226 22.9131 16.4096 23.0371 15.4486 23.0371V23.1921H20.0676V23.0371C19.1066 23.0371 18.4866 22.8511 18.0836 21.7661L10.1476 1.08914L2.83164 21.9831C2.45964 22.8201 1.83964 23.0371 0.940645 23.0371ZM5.59064 15.3491L9.71365 3.60014L14.2086 15.3491H5.59064ZM2.86264 21.8591L2.89364 21.7971C2.89364 21.8281 2.89364 21.8281 2.86264 21.8591ZM21.1512 17.7361C21.2442 21.2391 23.9412 23.6261 27.5682 23.6261C32.3112 23.6261 33.9542 20.2781 33.9542 18.1701C33.9542 12.0321 23.8482 11.3501 23.8482 5.77014C23.8482 2.94914 25.6152 1.52314 27.8162 1.49214C29.8622 1.52314 31.4432 3.16614 31.5052 5.27414L32.6522 3.66214C31.8462 2.08114 30.0792 1.08914 27.8782 1.05814H27.7852C24.6232 1.08914 22.5462 2.94914 22.5462 5.98714C22.5462 12.3421 32.6522 13.0241 32.6522 18.1391C32.6522 20.1231 31.7222 23.1921 27.5682 23.1921C24.1582 23.1921 22.3602 20.6811 22.3912 18.0151C22.3912 16.4341 23.0732 15.0391 24.0962 13.8611L22.8562 13.0551C21.6782 14.4191 21.1202 16.0931 21.1512 17.7361ZM35.3385 12.3421C35.3385 18.5731 38.6865 23.6261 44.9175 23.6261C51.1485 23.6261 54.4345 18.5731 54.4345 12.3421C54.4345 6.11114 51.1485 1.05814 44.9175 1.05814C38.6865 1.05814 35.3385 6.11114 35.3385 12.3421ZM44.9175 1.49214C49.9085 1.49214 52.9155 5.42914 52.9155 12.3421C52.9155 19.2551 49.9085 23.1921 44.9175 23.1921C39.9265 23.1921 36.8575 19.2551 36.8575 12.3421C36.8575 5.42914 39.9265 1.49214 44.9175 1.49214ZM55.8446 17.7361C55.9376 21.2391 58.6346 23.6261 62.2616 23.6261C67.0046 23.6261 68.6476 20.2781 68.6476 18.1701C68.6476 12.0321 58.5416 11.3501 58.5416 5.77014C58.5416 2.94914 60.3086 1.52314 62.5096 1.49214C64.5556 1.52314 66.1366 3.16614 66.1986 5.27414L67.3456 3.66214C66.5396 2.08114 64.7726 1.08914 62.5716 1.05814H62.4786C59.3166 1.08914 57.2396 2.94914 57.2396 5.98714C57.2396 12.3421 67.3456 13.0241 67.3456 18.1391C67.3456 20.1231 66.4156 23.1921 62.2616 23.1921C58.8516 23.1921 57.0536 20.6811 57.0846 18.0151C57.0846 16.4341 57.7666 15.0391 58.7896 13.8611L57.5496 13.0551C56.3716 14.4191 55.8136 16.0931 55.8446 17.7361ZM70.4969 23.1921H74.8369V23.0371C73.8759 23.0371 73.3179 22.9131 73.3179 21.7971V6.39014C73.3179 5.64614 72.7289 5.08814 72.0159 5.08814H70.4969V5.24314C71.4579 5.24314 72.0159 5.33614 72.0159 6.48314V21.7971C72.0159 22.9131 71.4579 23.0371 70.4969 23.0371V23.1921ZM71.4579 2.57714C71.6129 3.22814 72.2949 3.63114 72.9459 3.47614C73.5969 3.32114 73.9999 2.67014 73.8449 1.98814C73.6899 1.33714 73.0389 0.934137 72.3879 1.08914C71.7059 1.24414 71.3029 1.89514 71.4579 2.57714ZM78.2529 2.88714L84.2979 12.8691L78.5939 22.0761C78.0669 22.8511 77.6329 23.0371 76.7649 23.0371V23.1921H80.2989V23.0371C79.3379 23.0371 78.6559 22.7891 79.2759 21.7971L90.9629 2.88714C91.583 1.89514 91.9859 1.64714 92.9779 1.64714V1.49214H89.4439V1.64714C90.3119 1.64714 90.9319 1.86414 90.5909 2.63914L85.0729 11.5981L79.7719 2.88714C79.2139 1.95714 79.8959 1.64714 80.8569 1.64714V1.49214H76.2379V1.64714C77.1989 1.64714 77.6329 1.89514 78.2529 2.88714ZM106.624 23.1921V23.0371C105.663 23.0371 105.105 22.9131 105.105 21.7971V8.59114L107.43 6.79314L113.258 21.7971C113.692 22.8821 112.886 23.0371 111.925 23.0371V23.1921H116.451V23.0371C115.49 23.0371 115.056 22.7891 114.622 21.7041L108.515 5.98714L112.514 2.85614C113.506 2.11214 114.157 1.64714 115.118 1.64714V1.49214H111.615V1.64714C112.545 1.64714 112.855 2.01914 111.956 2.76314L105.105 8.06414V2.88714C105.105 1.77114 105.663 1.64714 106.624 1.64714V1.49214H102.284V1.64714C103.245 1.64714 103.803 1.77114 103.803 2.88714V21.7971C103.803 22.9131 103.245 23.0371 102.284 23.0371V23.1921H106.624ZM111.801 2.88714L111.832 2.85614C111.832 2.88714 111.801 2.88714 111.801 2.88714ZM123.58 23.6261C127.641 23.6261 129.78 20.9911 130.927 18.1391V18.1701C130.927 21.9211 132.043 23.6261 133.996 23.6261C135.918 23.6261 136.538 22.1071 136.538 21.1461H136.135C136.135 22.5721 135.143 23.1921 134.12 23.1921C133.314 23.1921 132.229 22.8511 132.229 18.7591V7.25814C132.229 4.59214 130.71 1.05814 125.44 1.05814C122.774 1.05814 119.643 2.20514 118.465 4.96414L119.829 5.39814C120.79 2.67014 123.363 1.49214 125.533 1.49214C130.431 1.49214 130.927 5.08814 130.927 7.78514V9.42814C126.68 9.42814 117.38 10.1411 117.38 17.7361C117.38 21.3631 120.015 23.6261 123.58 23.6261ZM130.927 9.70714V12.0631C130.927 14.4191 130.524 23.1921 123.58 23.1921C120.79 23.1921 118.682 21.4871 118.682 17.7361C118.682 10.9471 126.618 9.70714 130.927 9.70714ZM136.311 1.49214V11.4121H136.466C136.466 1.92614 136.466 1.92614 142.418 1.92614V21.7971C142.418 22.9131 141.86 23.0371 140.899 23.0371V23.1921H145.239V23.0371C144.247 23.0371 143.72 22.9131 143.72 21.7971V1.92614C149.641 1.92614 149.641 1.92614 149.641 11.4121H149.796V1.49214H136.311ZM151.195 12.3421C151.195 18.5731 155.194 23.6261 161.425 23.6261C167.408 23.6261 170.322 20.2161 170.322 15.9691H169.857C169.857 19.6581 167.284 23.1921 161.425 23.1921C156.434 23.1921 152.714 19.2551 152.714 12.3421C152.714 11.8461 152.745 11.3501 152.776 10.8851H170.322V10.4511C170.322 6.85514 167.749 1.05814 161.022 1.05814C154.791 1.05814 151.195 6.11114 151.195 12.3421ZM161.022 1.49214C165.052 1.49214 168.493 3.72414 168.958 8.87014C169.02 9.73814 168.369 10.4511 167.501 10.4511H152.807C153.365 4.71614 156.496 1.49214 161.022 1.49214ZM171.811 12.3421C171.811 18.5731 176.678 23.6261 182.909 23.6261C184.273 23.6261 185.544 23.4711 186.846 23.0061C189.822 21.9521 191.806 19.0691 191.806 15.8761V12.6831H173.33V12.3421C173.33 5.42914 177.918 1.49214 182.909 1.49214C188.768 1.49214 190.597 5.11914 191.372 8.71514H191.806V1.49214H191.496V1.52314C191.434 2.45314 190.752 2.91814 189.946 2.91814C189.543 2.91814 189.078 2.79414 188.675 2.54614C187.342 1.77114 185.451 1.05814 182.909 1.05814C176.678 1.05814 171.811 6.11114 171.811 12.3421ZM191.31 15.9381C191.31 19.2861 188.768 23.1921 182.909 23.1921C178.104 23.1921 173.671 19.5651 173.361 13.1171C191.279 13.1171 191.31 13.1171 191.31 15.9381ZM193.426 12.3421C193.426 18.5731 196.774 23.6261 203.005 23.6261C209.236 23.6261 212.522 18.5731 212.522 12.3421C212.522 6.11114 209.236 1.05814 203.005 1.05814C196.774 1.05814 193.426 6.11114 193.426 12.3421ZM203.005 1.49214C207.996 1.49214 211.003 5.42914 211.003 12.3421C211.003 19.2551 207.996 23.1921 203.005 23.1921C198.014 23.1921 194.945 19.2551 194.945 12.3421C194.945 5.42914 198.014 1.49214 203.005 1.49214ZM213.327 1.64714C214.288 1.64714 214.846 1.77114 214.846 2.88714V21.7971C214.846 22.9131 214.288 23.0371 213.327 23.0371V23.1921H217.667V23.0371C216.706 23.0371 216.148 22.9131 216.148 21.7971V2.88714C216.148 2.23614 217.202 1.92614 219.775 1.92614C221.604 1.92614 224.952 2.88714 224.952 6.60714C224.952 9.89314 222.813 12.2181 219.837 12.2181C218.845 12.2181 217.76 11.9701 216.613 11.3811L216.427 11.7221L225.169 21.8901C225.882 22.7271 226.936 23.1921 228.021 23.1921H229.013V23.0371C228.052 23.0371 227.649 22.7581 226.657 21.6421L219 12.6831C219.465 12.7761 219.961 12.8381 220.426 12.8381C223.588 12.8381 226.471 10.7611 226.471 6.54514C226.471 3.13514 223.867 1.49214 219.651 1.49214H213.327V1.64714ZM230.401 23.1921H234.741V23.0371C233.78 23.0371 233.222 22.9131 233.222 21.7971V6.39014C233.222 5.64614 232.633 5.08814 231.92 5.08814H230.401V5.24314C231.362 5.24314 231.92 5.33614 231.92 6.48314V21.7971C231.92 22.9131 231.362 23.0371 230.401 23.0371V23.1921ZM231.362 2.57714C231.517 3.22814 232.199 3.63114 232.85 3.47614C233.501 3.32114 233.904 2.67014 233.749 1.98814C233.594 1.33714 232.943 0.934137 232.292 1.08914C231.61 1.24414 231.207 1.89514 231.362 2.57714ZM238.157 2.88714L244.202 12.8691L238.498 22.0761C237.971 22.8511 237.537 23.0371 236.669 23.0371V23.1921H240.203V23.0371C239.242 23.0371 238.56 22.7891 239.18 21.7971L250.867 2.88714C251.487 1.89514 251.89 1.64714 252.882 1.64714V1.49214H249.348V1.64714C250.216 1.64714 250.836 1.86414 250.495 2.63914L244.977 11.5981L239.676 2.88714C239.118 1.95714 239.8 1.64714 240.761 1.64714V1.49214H236.142V1.64714C237.103 1.64714 237.537 1.89514 238.157 2.88714ZM258.206 23.6261C262.267 23.6261 264.406 20.9911 265.553 18.1391V18.1701C265.553 21.9211 266.669 23.6261 268.622 23.6261C270.544 23.6261 271.164 22.1071 271.164 21.1461H270.761C270.761 22.5721 269.769 23.1921 268.746 23.1921C267.94 23.1921 266.855 22.8511 266.855 18.7591V7.25814C266.855 4.59214 265.336 1.05814 260.066 1.05814C257.4 1.05814 254.269 2.20514 253.091 4.96414L254.455 5.39814C255.416 2.67014 257.989 1.49214 260.159 1.49214C265.057 1.49214 265.553 5.08814 265.553 7.78514V9.42814C261.306 9.42814 252.006 10.1411 252.006 17.7361C252.006 21.3631 254.641 23.6261 258.206 23.6261ZM265.553 9.70714V12.0631C265.553 14.4191 265.15 23.1921 258.206 23.1921C255.416 23.1921 253.308 21.4871 253.308 17.7361C253.308 10.9471 261.244 9.70714 265.553 9.70714ZM272.239 1.64714C273.2 1.64714 273.758 1.77114 273.758 2.88714V21.7971C273.758 22.9131 273.2 23.0371 272.239 23.0371V23.1921H283.988V13.8301H283.833C283.833 22.4791 282.221 22.7581 279.369 22.7581H275.06V2.88714C275.06 1.77114 275.618 1.64714 276.579 1.64714V1.49214H272.239V1.64714ZM292.203 23.6261C296.264 23.6261 298.403 20.9911 299.55 18.1391V18.1701C299.55 21.9211 300.666 23.6261 302.619 23.6261C304.541 23.6261 305.161 22.1071 305.161 21.1461H304.758C304.758 22.5721 303.766 23.1921 302.743 23.1921C301.937 23.1921 300.852 22.8511 300.852 18.7591V7.25814C300.852 4.59214 299.333 1.05814 294.063 1.05814C291.397 1.05814 288.266 2.20514 287.088 4.96414L288.452 5.39814C289.413 2.67014 291.986 1.49214 294.156 1.49214C299.054 1.49214 299.55 5.08814 299.55 7.78514V9.42814C295.303 9.42814 286.003 10.1411 286.003 17.7361C286.003 21.3631 288.638 23.6261 292.203 23.6261ZM299.55 9.70714V12.0631C299.55 14.4191 299.147 23.1921 292.203 23.1921C289.413 23.1921 287.305 21.4871 287.305 17.7361C287.305 10.9471 295.241 9.70714 299.55 9.70714ZM306.236 1.64714C307.197 1.64714 307.755 1.77114 307.755 2.88714V21.7971C307.755 22.9131 307.197 23.0371 306.236 23.0371V23.1921H310.576V23.0371C309.615 23.0371 309.057 22.9131 309.057 21.7971V2.88714C309.057 2.23614 310.111 1.92614 312.684 1.92614C314.513 1.92614 317.861 2.88714 317.861 6.60714C317.861 9.89314 315.722 12.2181 312.746 12.2181C311.754 12.2181 310.669 11.9701 309.522 11.3811L309.336 11.7221L318.078 21.8901C318.791 22.7271 319.845 23.1921 320.93 23.1921H321.922V23.0371C320.961 23.0371 320.558 22.7581 319.566 21.6421L311.909 12.6831C312.374 12.7761 312.87 12.8381 313.335 12.8381C316.497 12.8381 319.38 10.7611 319.38 6.54514C319.38 3.13514 316.776 1.49214 312.56 1.49214H306.236V1.64714Z" fill="#C9AC8C"/>
</svg>
